<?xml version="1.0" encoding="UTF-8" standalone="no"?>
<!-- Created with Inkscape (http://www.inkscape.org/) -->

<svg
   version="1.1"
   id="svg1"
   width="1860.4972"
   height="155.3777"
   viewBox="0 0 1860.4972 155.3777"
   sodipodi:docname="Denieled-White-Letters.svg"
   inkscape:version="1.4.3 (0d15f75, 2025-12-25)"
   xmlns:inkscape="http://www.inkscape.org/namespaces/inkscape"
   xmlns:sodipodi="http://sodipodi.sourceforge.net/DTD/sodipodi-0.dtd"
   xmlns="http://www.w3.org/2000/svg"
   xmlns:svg="http://www.w3.org/2000/svg">
  <sodipodi:namedview
     id="namedview1"
     pagecolor="#ffffff"
     bordercolor="#000000"
     borderopacity="0.25"
     inkscape:showpageshadow="2"
     inkscape:pageopacity="0.0"
     inkscape:pagecheckerboard="0"
     inkscape:deskcolor="#d1d1d1"
     inkscape:zoom="0.66084486"
     inkscape:cx="857.9926"
     inkscape:cy="221.68592"
     inkscape:window-width="2560"
     inkscape:window-height="1511"
     inkscape:window-x="-9"
     inkscape:window-y="-9"
     inkscape:window-maximized="1"
     inkscape:current-layer="svg1" />
  <defs
     id="defs1" />
  <g
     id="g1"
     transform="translate(-120,-162.75498)"
     style="fill:#ededed;fill-opacity:1">
    <path
       style="fill:#ededed;fill-opacity:1"
       d="m 120,240.44385 v -77.68882 l 67.75,0.54716 c 40.28841,0.32538 70.9927,0.99124 75.75,1.64275 27.86693,3.81633 38.2541,13.51915 43.22271,40.37507 2.42751,13.12101 2.4271,57.24109 -6.6e-4,70.36379 -4.647,25.11824 -14.14051,34.93745 -38.72205,40.05046 -6.25499,1.30105 -19.16164,1.62961 -77.75,1.97922 l -70.25,0.4192 z m 140.4887,59.49444 c 13.45003,-1.87073 19.75768,-5.86001 24.02464,-15.19441 3.84365,-8.40835 4.89625,-18.00943 4.90545,-44.74388 0.015,-43.56829 -3.55361,-52.77185 -22.41879,-57.81897 -4.46281,-1.19397 -17.05054,-1.55447 -66.75,-1.91169 L 139,179.82911 V 240.41455 301 h 56.92764 c 34.69785,0 59.90843,-0.41459 64.56106,-1.06171 z M 406,240.5 V 163 h 75.5 75.5 v 8.5 8.5 h -66 -66 v 25.5 25.5 h 63.5 63.5 v 8 8 H 488.5 425 v 27.5 27.5 h 67.5 67.5 v 8 8 h -77 -77 z m 244.24383,0.25 0.25617,-77.25 9.52445,-0.28349 9.52444,-0.28349 77.97556,65.66794 77.97555,65.66793 0.2572,-65.67187 0.2572,-65.67188 9.2428,0.28743 9.2428,0.28743 0.25617,77.25 0.25617,77.25 H 834.97427 824.9362 L 747.79441,252.5 C 705.36643,216.475 670.28078,187 669.82631,187 669.37184,187 669,216.475 669,252.5 V 318 h -9.50617 -9.50617 z m 298,0 0.25617,-77.25 9.25,-0.28753 9.25,-0.28752 V 240.46247 318 h -9.50617 -9.50617 z m 121.99997,0 0.2562,-77.25 h 75.5 75.5 v 8 8 l -65.75,0.25719 -65.75,0.25719 V 205.50719 231 h 63 63 v 8 8 h -63 -63 v 27.5 27.5 h 67.5 67.5 v 8 8 h -77.5062 -77.5061 z M 1315,240.5 V 163 h 9.5 9.5 v 69.5 69.5 h 61 61 v 8 8 h -70.5 -70.5 z m 232,0 V 163 h 75.5 75.5 v 8.5 8.5 h -66 -66 v 25.5 25.5 h 63.5 63.5 v 8 8 h -63.5 -63.5 v 27.5 27.5 h 67.5 67.5 v 8 8 h -77 -77 z m 245,-0.0562 v -77.68882 l 67.75,0.54716 c 40.2884,0.32538 70.9927,0.99124 75.75,1.64275 27.5247,3.76945 38.1395,13.4698 43.2843,39.55506 2.0188,10.23598 2.3492,58.28501 0.4751,69.09734 -4.6506,26.83096 -14.1018,36.97902 -39.2594,42.15413 -6.2128,1.27802 -19.5569,1.61475 -77.75,1.96201 l -70.25,0.4192 z m 147.2621,58.63498 c 11.8057,-3.08887 18.5188,-11.43887 20.9662,-26.07883 1.7224,-10.30329 1.6813,-56.1801 -0.059,-65.5 -2.2329,-11.95984 -6.1443,-18.83486 -12.6696,-22.26878 -8.1926,-4.31137 -11.3026,-4.51649 -75.25,-4.96322 L 1811,179.84011 v 60.63569 60.63569 l 61.75,-0.39335 c 44.9582,-0.28638 63.045,-0.73216 66.5121,-1.63931 z"
       id="path1" />
  </g>
</svg>
